<svg xmlns="http://www.w3.org/2000/svg" xmlns:xlink="http://www.w3.org/1999/xlink" width="500" zoomAndPan="magnify" viewBox="0 0 375 118.499997" height="158" preserveAspectRatio="xMidYMid meet" version="1.0"><defs><g/><clipPath id="40e1a770a6"><path d="M 183 65.738281 L 192 65.738281 L 192 73.953125 L 183 73.953125 Z M 183 65.738281 " clip-rule="nonzero"/></clipPath></defs><g fill="#000000" fill-opacity="1"><g transform="translate(112.491813, 55.750495)"><g><path d="M 13.21875 0.359375 C 12.582031 0.359375 12.070312 0.296875 11.6875 0.171875 C 11.300781 0.0546875 11.109375 -0.144531 11.109375 -0.4375 C 11.109375 -0.769531 11.300781 -1.035156 11.6875 -1.234375 C 12.070312 -1.429688 12.675781 -1.601562 13.5 -1.75 C 15.34375 -2.082031 16.75 -2.742188 17.71875 -3.734375 C 18.6875 -4.734375 19.171875 -6.101562 19.171875 -7.84375 L 19.171875 -18.59375 C 19.171875 -19.5625 18.914062 -20.613281 18.40625 -21.75 C 17.894531 -22.882812 17.546875 -23.625 17.359375 -23.96875 L 8.859375 -37.90625 C 8.515625 -38.476562 7.976562 -39.285156 7.25 -40.328125 C 6.53125 -41.367188 5.742188 -42.347656 4.890625 -43.265625 C 4.046875 -44.191406 3.210938 -44.773438 2.390625 -45.015625 C 1.617188 -45.253906 1.023438 -45.492188 0.609375 -45.734375 C 0.203125 -45.984375 0 -46.273438 0 -46.609375 C 0 -46.898438 0.191406 -47.101562 0.578125 -47.21875 C 0.960938 -47.34375 1.472656 -47.40625 2.109375 -47.40625 C 3.222656 -47.40625 4.503906 -47.367188 5.953125 -47.296875 C 7.398438 -47.234375 8.945312 -47.203125 10.59375 -47.203125 C 11.707031 -47.203125 12.757812 -47.222656 13.75 -47.265625 C 14.75 -47.316406 15.632812 -47.34375 16.40625 -47.34375 C 17.039062 -47.34375 17.550781 -47.28125 17.9375 -47.15625 C 18.320312 -47.039062 18.515625 -46.835938 18.515625 -46.546875 C 18.515625 -46.203125 18.320312 -45.921875 17.9375 -45.703125 C 17.550781 -45.484375 16.945312 -45.28125 16.125 -45.09375 C 15.445312 -44.894531 14.890625 -44.675781 14.453125 -44.4375 C 14.015625 -44.195312 13.796875 -43.8125 13.796875 -43.28125 C 13.796875 -42.644531 14.109375 -41.769531 14.734375 -40.65625 L 21.421875 -28.3125 C 22.390625 -26.476562 23.066406 -25.5625 23.453125 -25.5625 C 23.742188 -25.5625 24.054688 -25.765625 24.390625 -26.171875 C 24.734375 -26.585938 25.21875 -27.300781 25.84375 -28.3125 C 26.957031 -30.007812 27.953125 -31.628906 28.828125 -33.171875 C 29.703125 -34.722656 30.742188 -36.585938 31.953125 -38.765625 C 32.429688 -39.585938 32.765625 -40.300781 32.953125 -40.90625 C 33.148438 -41.519531 33.25 -42.039062 33.25 -42.46875 C 33.25 -43.394531 32.921875 -44.023438 32.265625 -44.359375 C 31.617188 -44.703125 30.957031 -44.921875 30.28125 -45.015625 C 29.789062 -45.109375 29.265625 -45.289062 28.703125 -45.5625 C 28.148438 -45.832031 27.875 -46.132812 27.875 -46.46875 C 27.875 -46.757812 28.066406 -46.960938 28.453125 -47.078125 C 28.847656 -47.203125 29.359375 -47.265625 29.984375 -47.265625 C 31.097656 -47.265625 32.019531 -47.253906 32.75 -47.234375 C 33.476562 -47.210938 34.375 -47.203125 35.4375 -47.203125 C 36.9375 -47.203125 38.363281 -47.234375 39.71875 -47.296875 C 41.070312 -47.367188 42.160156 -47.40625 42.984375 -47.40625 C 43.609375 -47.40625 44.113281 -47.34375 44.5 -47.21875 C 44.894531 -47.101562 45.09375 -46.898438 45.09375 -46.609375 C 45.09375 -46.273438 44.703125 -45.960938 43.921875 -45.671875 C 43.148438 -45.378906 42.253906 -45.085938 41.234375 -44.796875 C 39.984375 -44.460938 38.929688 -43.773438 38.078125 -42.734375 C 37.234375 -41.691406 36.160156 -40.175781 34.859375 -38.1875 C 33.890625 -36.6875 33.078125 -35.425781 32.421875 -34.40625 C 31.765625 -33.394531 31.15625 -32.453125 30.59375 -31.578125 C 30.039062 -30.710938 29.472656 -29.804688 28.890625 -28.859375 C 28.316406 -27.921875 27.617188 -26.769531 26.796875 -25.40625 C 26.160156 -24.394531 25.722656 -23.570312 25.484375 -22.9375 C 25.242188 -22.3125 25.097656 -21.71875 25.046875 -21.15625 C 25.003906 -20.601562 24.984375 -19.84375 24.984375 -18.875 L 24.984375 -7.84375 C 24.984375 -6.195312 25.488281 -4.851562 26.5 -3.8125 C 27.519531 -2.769531 28.925781 -2.082031 30.71875 -1.75 C 31.539062 -1.601562 32.144531 -1.429688 32.53125 -1.234375 C 32.914062 -1.035156 33.109375 -0.769531 33.109375 -0.4375 C 33.109375 -0.144531 32.914062 0.0546875 32.53125 0.171875 C 32.144531 0.296875 31.632812 0.359375 31 0.359375 C 29.695312 0.359375 28.617188 0.320312 27.765625 0.25 C 26.921875 0.175781 26.109375 0.113281 25.328125 0.0625 C 24.554688 0.0195312 23.617188 0 22.515625 0 C 21.296875 0 20.238281 0.0195312 19.34375 0.0625 C 18.445312 0.113281 17.523438 0.175781 16.578125 0.25 C 15.640625 0.320312 14.519531 0.359375 13.21875 0.359375 Z M 13.21875 0.359375 "/></g></g></g><g fill="#000000" fill-opacity="1"><g transform="translate(154.459066, 55.750495)"><g><path d="M 3.484375 0.359375 C 2.859375 0.359375 2.347656 0.296875 1.953125 0.171875 C 1.566406 0.0546875 1.375 -0.144531 1.375 -0.4375 C 1.375 -1.019531 2.175781 -1.457031 3.78125 -1.75 C 5.613281 -2.082031 7.015625 -2.632812 7.984375 -3.40625 C 8.953125 -4.1875 9.4375 -5.445312 9.4375 -7.1875 L 9.4375 -39.859375 C 9.4375 -41.597656 9.070312 -42.878906 8.34375 -43.703125 C 7.625 -44.523438 6.367188 -45.007812 4.578125 -45.15625 C 3.753906 -45.257812 3.144531 -45.441406 2.75 -45.703125 C 2.363281 -45.972656 2.171875 -46.273438 2.171875 -46.609375 C 2.171875 -46.898438 2.363281 -47.101562 2.75 -47.21875 C 3.144531 -47.34375 3.65625 -47.40625 4.28125 -47.40625 C 5.59375 -47.40625 6.609375 -47.40625 7.328125 -47.40625 C 8.054688 -47.40625 8.75 -47.394531 9.40625 -47.375 C 10.0625 -47.351562 10.867188 -47.34375 11.828125 -47.34375 C 12.753906 -47.34375 13.554688 -47.378906 14.234375 -47.453125 C 14.910156 -47.523438 15.671875 -47.582031 16.515625 -47.625 C 17.367188 -47.675781 18.492188 -47.703125 19.890625 -47.703125 C 25.554688 -47.703125 29.78125 -46.890625 32.5625 -45.265625 C 35.34375 -43.648438 36.734375 -40.859375 36.734375 -36.890625 C 36.734375 -35.242188 36.457031 -33.800781 35.90625 -32.5625 C 35.351562 -31.332031 34.804688 -30.453125 34.265625 -29.921875 C 33.492188 -29.140625 32.789062 -28.539062 32.15625 -28.125 C 31.53125 -27.71875 30.613281 -27.273438 29.40625 -26.796875 C 29.207031 -26.742188 29.109375 -26.632812 29.109375 -26.46875 C 29.109375 -26.300781 29.207031 -26.164062 29.40625 -26.0625 C 30.519531 -25.726562 31.671875 -25.296875 32.859375 -24.765625 C 34.046875 -24.234375 35.15625 -23.539062 36.1875 -22.6875 C 37.226562 -21.84375 38.078125 -20.726562 38.734375 -19.34375 C 39.390625 -17.96875 39.71875 -16.21875 39.71875 -14.09375 C 39.71875 -11.425781 39.289062 -9.316406 38.4375 -7.765625 C 37.59375 -6.222656 36.585938 -5.039062 35.421875 -4.21875 C 34.265625 -3.394531 33.179688 -2.710938 32.171875 -2.171875 C 30.671875 -1.398438 28.925781 -0.796875 26.9375 -0.359375 C 24.957031 0.078125 22.585938 0.296875 19.828125 0.296875 C 19.191406 0.296875 18.242188 0.242188 16.984375 0.140625 C 15.734375 0.046875 14.378906 0 12.921875 0 C 11.660156 0 10.59375 0.0195312 9.71875 0.0625 C 8.851562 0.113281 7.945312 0.175781 7 0.25 C 6.0625 0.320312 4.890625 0.359375 3.484375 0.359375 Z M 20.84375 -2.6875 C 22.96875 -2.6875 24.945312 -3.171875 26.78125 -4.140625 C 28.625 -5.109375 30.101562 -6.425781 31.21875 -8.09375 C 32.332031 -9.757812 32.890625 -11.632812 32.890625 -13.71875 C 32.890625 -15.613281 32.570312 -17.175781 31.9375 -18.40625 C 31.3125 -19.644531 30.585938 -20.648438 29.765625 -21.421875 C 28.941406 -22.191406 28.191406 -22.75 27.515625 -23.09375 C 26.890625 -23.476562 25.898438 -23.875 24.546875 -24.28125 C 23.191406 -24.695312 21.421875 -24.90625 19.234375 -24.90625 C 17.691406 -24.90625 16.617188 -24.585938 16.015625 -23.953125 C 15.410156 -23.328125 15.109375 -22.773438 15.109375 -22.296875 L 15.109375 -7.84375 C 15.109375 -5.8125 15.601562 -4.441406 16.59375 -3.734375 C 17.582031 -3.035156 19 -2.6875 20.84375 -2.6875 Z M 18.4375 -26.9375 C 19.75 -26.9375 21.164062 -27.082031 22.6875 -27.375 C 24.21875 -27.664062 25.734375 -28.222656 27.234375 -29.046875 C 27.765625 -29.335938 28.441406 -30.035156 29.265625 -31.140625 C 30.085938 -32.253906 30.5 -33.851562 30.5 -35.9375 C 30.5 -37.34375 30.234375 -38.78125 29.703125 -40.25 C 29.171875 -41.726562 28.148438 -42.976562 26.640625 -44 C 25.140625 -45.019531 22.890625 -45.53125 19.890625 -45.53125 C 17.910156 -45.53125 16.617188 -45.257812 16.015625 -44.71875 C 15.410156 -44.1875 15.109375 -43.367188 15.109375 -42.265625 L 15.109375 -29.625 C 15.109375 -28.363281 15.519531 -27.597656 16.34375 -27.328125 C 17.164062 -27.066406 17.863281 -26.9375 18.4375 -26.9375 Z M 18.4375 -26.9375 "/></g></g></g><g fill="#000000" fill-opacity="1"><g transform="translate(197.079789, 55.750495)"><g><path d="M 3.484375 0.359375 C 2.859375 0.359375 2.347656 0.296875 1.953125 0.171875 C 1.566406 0.0546875 1.375 -0.144531 1.375 -0.4375 C 1.375 -0.769531 1.566406 -1.035156 1.953125 -1.234375 C 2.347656 -1.429688 2.957031 -1.601562 3.78125 -1.75 C 4.988281 -1.988281 5.976562 -2.566406 6.75 -3.484375 C 7.53125 -4.398438 8.039062 -5.707031 8.28125 -7.40625 C 8.863281 -11.757812 9.367188 -15.910156 9.796875 -19.859375 C 10.234375 -23.804688 10.582031 -27.363281 10.84375 -30.53125 C 11.113281 -33.695312 11.25 -36.300781 11.25 -38.34375 C 11.25 -38.726562 11.25 -39.132812 11.25 -39.5625 C 11.25 -40 11.226562 -40.390625 11.1875 -40.734375 C 11.132812 -41.117188 11.054688 -41.515625 10.953125 -41.921875 C 10.859375 -42.335938 10.570312 -42.738281 10.09375 -43.125 C 9.21875 -43.851562 8.367188 -44.347656 7.546875 -44.609375 C 6.722656 -44.878906 5.753906 -45.113281 4.640625 -45.3125 C 4.160156 -45.40625 3.773438 -45.582031 3.484375 -45.84375 C 3.191406 -46.113281 3.046875 -46.421875 3.046875 -46.765625 C 3.046875 -47.148438 3.273438 -47.378906 3.734375 -47.453125 C 4.191406 -47.523438 4.785156 -47.5625 5.515625 -47.5625 C 6.003906 -47.5625 6.742188 -47.535156 7.734375 -47.484375 C 8.722656 -47.429688 9.796875 -47.359375 10.953125 -47.265625 C 12.117188 -47.171875 13.195312 -47.097656 14.1875 -47.046875 C 15.1875 -47.003906 15.925781 -46.984375 16.40625 -46.984375 C 16.75 -46.984375 17.039062 -46.882812 17.28125 -46.6875 C 17.519531 -46.488281 17.691406 -46.195312 17.796875 -45.8125 C 18.035156 -44.945312 18.273438 -44.03125 18.515625 -43.0625 C 18.753906 -42.09375 19.046875 -41.144531 19.390625 -40.21875 L 30.859375 -11.109375 C 31.003906 -10.765625 31.269531 -10.554688 31.65625 -10.484375 C 32.039062 -10.421875 32.332031 -10.554688 32.53125 -10.890625 L 46.828125 -40.65625 C 47.078125 -41.476562 47.320312 -42.394531 47.5625 -43.40625 C 47.800781 -44.425781 47.992188 -45.328125 48.140625 -46.109375 C 48.285156 -46.734375 48.523438 -47.046875 48.859375 -47.046875 L 51.484375 -47.046875 C 52.929688 -47.046875 54.460938 -47.140625 56.078125 -47.328125 C 57.703125 -47.523438 58.925781 -47.625 59.75 -47.625 C 60 -47.625 60.316406 -47.585938 60.703125 -47.515625 C 61.085938 -47.441406 61.28125 -47.238281 61.28125 -46.90625 C 61.28125 -46.5625 61.144531 -46.289062 60.875 -46.09375 C 60.613281 -45.90625 60.117188 -45.664062 59.390625 -45.375 C 58.765625 -45.132812 58.0625 -44.867188 57.28125 -44.578125 C 56.507812 -44.285156 55.785156 -43.992188 55.109375 -43.703125 C 54.628906 -43.515625 54.21875 -43.191406 53.875 -42.734375 C 53.539062 -42.273438 53.375 -41.773438 53.375 -41.234375 C 53.375 -37.847656 53.429688 -34.664062 53.546875 -31.6875 C 53.671875 -28.71875 53.804688 -25.863281 53.953125 -23.125 C 54.097656 -20.394531 54.265625 -17.695312 54.453125 -15.03125 C 54.648438 -12.363281 54.820312 -9.648438 54.96875 -6.890625 C 55.0625 -5.390625 55.539062 -4.238281 56.40625 -3.4375 C 57.28125 -2.644531 58.613281 -2.082031 60.40625 -1.75 C 61.226562 -1.601562 61.832031 -1.429688 62.21875 -1.234375 C 62.613281 -1.035156 62.8125 -0.769531 62.8125 -0.4375 C 62.8125 -0.144531 62.613281 0.0546875 62.21875 0.171875 C 61.832031 0.296875 61.328125 0.359375 60.703125 0.359375 C 59.390625 0.359375 58.3125 0.320312 57.46875 0.25 C 56.625 0.175781 55.8125 0.113281 55.03125 0.0625 C 54.257812 0.0195312 53.316406 0 52.203125 0 C 51.234375 0 50.421875 0.0195312 49.765625 0.0625 C 49.117188 0.113281 48.421875 0.175781 47.671875 0.25 C 46.921875 0.320312 45.890625 0.359375 44.578125 0.359375 C 43.953125 0.359375 43.441406 0.296875 43.046875 0.171875 C 42.660156 0.0546875 42.46875 -0.144531 42.46875 -0.4375 C 42.46875 -0.769531 42.660156 -1.046875 43.046875 -1.265625 C 43.441406 -1.484375 44.050781 -1.644531 44.875 -1.75 C 46.28125 -1.9375 47.25 -2.425781 47.78125 -3.21875 C 48.3125 -4.019531 48.578125 -5.269531 48.578125 -6.96875 C 48.578125 -10.457031 48.539062 -13.601562 48.46875 -16.40625 C 48.394531 -19.21875 48.285156 -21.988281 48.140625 -24.71875 C 47.992188 -27.457031 47.847656 -30.445312 47.703125 -33.6875 C 47.648438 -34.21875 47.503906 -34.472656 47.265625 -34.453125 C 47.023438 -34.429688 46.785156 -34.175781 46.546875 -33.6875 L 29.84375 0.359375 C 29.75 0.597656 29.53125 0.726562 29.1875 0.75 C 28.851562 0.78125 28.632812 0.628906 28.53125 0.296875 C 26.644531 -5.367188 24.625 -10.945312 22.46875 -16.4375 C 20.3125 -21.9375 17.878906 -27.859375 15.171875 -34.203125 C 15.078125 -34.441406 14.90625 -34.5625 14.65625 -34.5625 C 14.414062 -34.5625 14.273438 -34.441406 14.234375 -34.203125 C 13.796875 -30.804688 13.394531 -27.691406 13.03125 -24.859375 C 12.664062 -22.035156 12.382812 -19.242188 12.1875 -16.484375 C 12 -13.722656 11.90625 -10.695312 11.90625 -7.40625 C 11.90625 -6.101562 12.316406 -4.90625 13.140625 -3.8125 C 13.960938 -2.71875 15.125 -2.03125 16.625 -1.75 C 17.445312 -1.601562 18.050781 -1.429688 18.4375 -1.234375 C 18.832031 -1.035156 19.03125 -0.769531 19.03125 -0.4375 C 19.03125 -0.144531 18.832031 0.0546875 18.4375 0.171875 C 18.050781 0.296875 17.546875 0.359375 16.921875 0.359375 C 15.609375 0.359375 14.625 0.320312 13.96875 0.25 C 13.320312 0.175781 12.742188 0.113281 12.234375 0.0625 C 11.722656 0.0195312 11.007812 0 10.09375 0 C 9.21875 0 8.535156 0.0195312 8.046875 0.0625 C 7.566406 0.113281 7.015625 0.175781 6.390625 0.25 C 5.765625 0.320312 4.796875 0.359375 3.484375 0.359375 Z M 3.484375 0.359375 "/></g></g></g><g clip-path="url(#40e1a770a6)"><path fill="#000000" d="M 189.101562 68.382812 L 187.652344 65.738281 L 186.199219 68.382812 L 183.574219 69.847656 L 186.199219 71.308594 L 187.652344 73.953125 L 189.101562 71.308594 L 191.722656 69.847656 Z M 189.101562 68.382812 " fill-opacity="1" fill-rule="nonzero"/></g><path fill="#000000" d="M 174.175781 68.3125 L 86.429688 69.988281 L 174.191406 71.382812 C 175.648438 71.402344 176.851562 70.710938 176.851562 69.847656 C 176.847656 68.980469 175.640625 68.285156 174.175781 68.3125 Z M 174.175781 68.3125 " fill-opacity="1" fill-rule="nonzero"/><path fill="#000000" d="M 181.097656 69.847656 C 181.097656 70.023438 181.0625 70.195312 180.992188 70.363281 C 180.925781 70.527344 180.828125 70.671875 180.703125 70.800781 C 180.578125 70.925781 180.433594 71.023438 180.269531 71.09375 C 180.105469 71.160156 179.9375 71.195312 179.757812 71.195312 C 179.582031 71.195312 179.410156 71.160156 179.246094 71.09375 C 179.082031 71.023438 178.9375 70.925781 178.8125 70.800781 C 178.6875 70.671875 178.589844 70.527344 178.523438 70.363281 C 178.457031 70.195312 178.421875 70.023438 178.421875 69.847656 C 178.421875 69.667969 178.457031 69.496094 178.523438 69.328125 C 178.589844 69.164062 178.6875 69.019531 178.8125 68.890625 C 178.9375 68.765625 179.082031 68.667969 179.246094 68.601562 C 179.410156 68.53125 179.582031 68.496094 179.757812 68.496094 C 179.9375 68.496094 180.105469 68.53125 180.269531 68.601562 C 180.433594 68.667969 180.578125 68.765625 180.703125 68.890625 C 180.828125 69.019531 180.925781 69.164062 180.992188 69.328125 C 181.0625 69.496094 181.097656 69.667969 181.097656 69.847656 Z M 181.097656 69.847656 " fill-opacity="1" fill-rule="nonzero"/><path fill="#000000" d="M 201.121094 68.3125 C 199.664062 68.28125 198.453125 68.980469 198.453125 69.847656 C 198.453125 70.710938 199.652344 71.402344 201.109375 71.382812 L 288.875 69.988281 Z M 201.121094 68.3125 " fill-opacity="1" fill-rule="nonzero"/><path fill="#000000" d="M 196.484375 68.894531 C 196.609375 69.019531 196.707031 69.164062 196.773438 69.332031 C 196.84375 69.496094 196.875 69.667969 196.875 69.847656 C 196.875 70.023438 196.84375 70.195312 196.773438 70.363281 C 196.707031 70.527344 196.609375 70.671875 196.484375 70.800781 C 196.359375 70.925781 196.214844 71.023438 196.050781 71.09375 C 195.886719 71.160156 195.71875 71.195312 195.539062 71.195312 C 195.363281 71.195312 195.191406 71.160156 195.027344 71.09375 C 194.863281 71.023438 194.71875 70.925781 194.59375 70.800781 C 194.46875 70.671875 194.371094 70.527344 194.304688 70.363281 C 194.238281 70.195312 194.203125 70.023438 194.203125 69.847656 C 194.203125 69.667969 194.238281 69.496094 194.304688 69.332031 C 194.371094 69.164062 194.46875 69.019531 194.59375 68.894531 C 194.71875 68.765625 194.863281 68.667969 195.027344 68.601562 C 195.191406 68.53125 195.363281 68.496094 195.539062 68.496094 C 195.71875 68.496094 195.886719 68.53125 196.050781 68.601562 C 196.214844 68.667969 196.359375 68.765625 196.484375 68.894531 Z M 196.484375 68.894531 " fill-opacity="1" fill-rule="nonzero"/><g fill="#000000" fill-opacity="1"><g transform="translate(19.701385, 99.489953)"><g><path d="M 10.453125 0 L 7.953125 0 L 7.953125 -8.40625 L 0.5625 -21.390625 L 3.3125 -21.390625 L 9.078125 -11.375 L 9.4375 -11.375 L 15.15625 -21.390625 L 17.859375 -21.390625 L 10.453125 -8.40625 Z M 10.453125 0 "/></g></g></g><g fill="#000000" fill-opacity="1"><g transform="translate(36.01633, 99.489953)"><g><path d="M 15.375 -7.515625 L 4.28125 -7.515625 C 4.351562 -5.554688 4.828125 -4.117188 5.703125 -3.203125 C 6.578125 -2.285156 7.773438 -1.828125 9.296875 -1.828125 C 10.441406 -1.828125 11.363281 -2.03125 12.0625 -2.4375 C 12.769531 -2.851562 13.320312 -3.5 13.71875 -4.375 L 14.03125 -4.375 L 15.578125 -3.453125 C 15.109375 -2.285156 14.359375 -1.363281 13.328125 -0.6875 C 12.304688 -0.0195312 10.960938 0.3125 9.296875 0.3125 C 7.734375 0.3125 6.390625 0.00390625 5.265625 -0.609375 C 4.140625 -1.222656 3.273438 -2.15625 2.671875 -3.40625 C 2.066406 -4.65625 1.765625 -6.207031 1.765625 -8.0625 C 1.765625 -9.894531 2.082031 -11.441406 2.71875 -12.703125 C 3.363281 -13.960938 4.238281 -14.898438 5.34375 -15.515625 C 6.457031 -16.140625 7.722656 -16.453125 9.140625 -16.453125 C 11.210938 -16.453125 12.828125 -15.867188 13.984375 -14.703125 C 15.148438 -13.535156 15.738281 -11.804688 15.75 -9.515625 C 15.75 -8.617188 15.726562 -8.015625 15.6875 -7.703125 Z M 13.390625 -9.515625 C 13.347656 -11.234375 12.96875 -12.476562 12.25 -13.25 C 11.53125 -14.03125 10.492188 -14.421875 9.140625 -14.421875 C 7.734375 -14.421875 6.625 -14.03125 5.8125 -13.25 C 5.007812 -12.46875 4.519531 -11.222656 4.34375 -9.515625 Z M 13.390625 -9.515625 "/></g></g></g><g fill="#000000" fill-opacity="1"><g transform="translate(53.224117, 99.489953)"><g><path d="M 7.359375 0.3125 C 6.347656 0.3125 5.410156 0.175781 4.546875 -0.09375 C 3.679688 -0.363281 2.953125 -0.734375 2.359375 -1.203125 C 1.765625 -1.671875 1.34375 -2.195312 1.09375 -2.78125 L 2.5 -4.25 L 2.8125 -4.25 C 3.332031 -3.445312 3.960938 -2.84375 4.703125 -2.4375 C 5.453125 -2.03125 6.335938 -1.828125 7.359375 -1.828125 C 8.546875 -1.828125 9.445312 -2.054688 10.0625 -2.515625 C 10.6875 -2.984375 11 -3.632812 11 -4.46875 C 11 -5.101562 10.8125 -5.625 10.4375 -6.03125 C 10.0625 -6.445312 9.457031 -6.757812 8.625 -6.96875 L 5.890625 -7.640625 C 4.441406 -7.992188 3.382812 -8.550781 2.71875 -9.3125 C 2.050781 -10.070312 1.71875 -11.007812 1.71875 -12.125 C 1.71875 -13.007812 1.941406 -13.773438 2.390625 -14.421875 C 2.835938 -15.066406 3.484375 -15.566406 4.328125 -15.921875 C 5.171875 -16.273438 6.171875 -16.453125 7.328125 -16.453125 C 8.816406 -16.453125 9.984375 -16.242188 10.828125 -15.828125 C 11.679688 -15.410156 12.347656 -14.832031 12.828125 -14.09375 L 11.484375 -12.78125 L 11.1875 -12.78125 C 10.675781 -13.375 10.113281 -13.800781 9.5 -14.0625 C 8.894531 -14.320312 8.171875 -14.453125 7.328125 -14.453125 C 6.265625 -14.453125 5.445312 -14.257812 4.875 -13.875 C 4.3125 -13.5 4.03125 -12.953125 4.03125 -12.234375 C 4.03125 -11.578125 4.226562 -11.046875 4.625 -10.640625 C 5.03125 -10.242188 5.734375 -9.925781 6.734375 -9.6875 L 9.40625 -9.046875 C 10.8125 -8.710938 11.828125 -8.160156 12.453125 -7.390625 C 13.078125 -6.617188 13.390625 -5.65625 13.390625 -4.5 C 13.390625 -3.550781 13.164062 -2.710938 12.71875 -1.984375 C 12.269531 -1.265625 11.59375 -0.703125 10.6875 -0.296875 C 9.78125 0.109375 8.671875 0.3125 7.359375 0.3125 Z M 7.359375 0.3125 "/></g></g></g><g fill="#000000" fill-opacity="1"><g transform="translate(68.149239, 99.489953)"><g><path d="M 2.8125 0 L 2.8125 -22.625 L 5.1875 -22.625 L 5.1875 -13.84375 L 5.5 -13.78125 C 6.65625 -15.5625 8.316406 -16.453125 10.484375 -16.453125 C 12.429688 -16.453125 13.835938 -15.957031 14.703125 -14.96875 C 15.578125 -13.976562 16.015625 -12.453125 16.015625 -10.390625 L 16.015625 0 L 13.640625 0 L 13.640625 -10.328125 C 13.640625 -11.304688 13.515625 -12.085938 13.265625 -12.671875 C 13.015625 -13.265625 12.628906 -13.695312 12.109375 -13.96875 C 11.585938 -14.238281 10.898438 -14.375 10.046875 -14.375 C 8.585938 -14.375 7.410156 -13.898438 6.515625 -12.953125 C 5.628906 -12.003906 5.1875 -10.445312 5.1875 -8.28125 L 5.1875 0 Z M 2.8125 0 "/></g></g></g><g fill="#000000" fill-opacity="1"><g transform="translate(86.732479, 99.489953)"><g><path d="M 7.96875 0.3125 C 6.144531 0.3125 4.785156 -0.171875 3.890625 -1.140625 C 3.003906 -2.109375 2.5625 -3.523438 2.5625 -5.390625 L 2.5625 -16.140625 L 4.953125 -16.140625 L 4.953125 -5.4375 C 4.953125 -2.988281 6.101562 -1.765625 8.40625 -1.765625 C 9.863281 -1.765625 11.015625 -2.242188 11.859375 -3.203125 C 12.710938 -4.160156 13.140625 -5.710938 13.140625 -7.859375 L 13.140625 -16.140625 L 15.53125 -16.140625 L 15.53125 0 L 13.265625 0 L 13.265625 -2.53125 L 12.96875 -2.609375 C 12.40625 -1.617188 11.734375 -0.882812 10.953125 -0.40625 C 10.179688 0.0703125 9.1875 0.3125 7.96875 0.3125 Z M 7.96875 0.3125 "/></g></g></g><g fill="#000000" fill-opacity="1"><g transform="translate(105.066967, 99.489953)"><g><path d="M 2.8125 0 L 2.8125 -16.140625 L 5.078125 -16.140625 L 5.078125 -13.609375 L 5.390625 -13.53125 C 6.140625 -15.363281 7.550781 -16.28125 9.625 -16.28125 C 10.726562 -16.28125 11.554688 -16.082031 12.109375 -15.6875 L 11.484375 -13.671875 L 11.1875 -13.609375 C 10.582031 -13.910156 9.921875 -14.0625 9.203125 -14.0625 C 7.910156 -14.0625 6.914062 -13.578125 6.21875 -12.609375 C 5.53125 -11.648438 5.1875 -10.085938 5.1875 -7.921875 L 5.1875 0 Z M 2.8125 0 "/></g></g></g><g fill="#000000" fill-opacity="1"><g transform="translate(117.533833, 99.489953)"><g><path d="M 7.96875 0.3125 C 6.144531 0.3125 4.785156 -0.171875 3.890625 -1.140625 C 3.003906 -2.109375 2.5625 -3.523438 2.5625 -5.390625 L 2.5625 -16.140625 L 4.953125 -16.140625 L 4.953125 -5.4375 C 4.953125 -2.988281 6.101562 -1.765625 8.40625 -1.765625 C 9.863281 -1.765625 11.015625 -2.242188 11.859375 -3.203125 C 12.710938 -4.160156 13.140625 -5.710938 13.140625 -7.859375 L 13.140625 -16.140625 L 15.53125 -16.140625 L 15.53125 0 L 13.265625 0 L 13.265625 -2.53125 L 12.96875 -2.609375 C 12.40625 -1.617188 11.734375 -0.882812 10.953125 -0.40625 C 10.179688 0.0703125 9.1875 0.3125 7.96875 0.3125 Z M 7.96875 0.3125 "/></g></g></g><g fill="#000000" fill-opacity="1"><g transform="translate(135.868321, 99.489953)"><g><path d="M 2.8125 0 L 2.8125 -16.140625 L 5.078125 -16.140625 L 5.078125 -13.609375 L 5.390625 -13.53125 C 5.921875 -14.476562 6.601562 -15.203125 7.4375 -15.703125 C 8.269531 -16.203125 9.285156 -16.453125 10.484375 -16.453125 C 12.429688 -16.453125 13.835938 -15.957031 14.703125 -14.96875 C 15.578125 -13.976562 16.015625 -12.453125 16.015625 -10.390625 L 16.015625 0 L 13.640625 0 L 13.640625 -10.328125 C 13.640625 -11.304688 13.515625 -12.085938 13.265625 -12.671875 C 13.015625 -13.265625 12.628906 -13.695312 12.109375 -13.96875 C 11.585938 -14.238281 10.898438 -14.375 10.046875 -14.375 C 8.597656 -14.375 7.425781 -13.890625 6.53125 -12.921875 C 5.632812 -11.960938 5.1875 -10.414062 5.1875 -8.28125 L 5.1875 0 Z M 2.8125 0 "/></g></g></g><g fill="#000000" fill-opacity="1"><g transform="translate(154.451561, 99.489953)"><g/></g></g><g fill="#000000" fill-opacity="1"><g transform="translate(161.797062, 99.489953)"><g><path d="M 3.234375 0 L 3.234375 -21.390625 L 11.34375 -21.390625 C 12.65625 -21.390625 13.769531 -21.179688 14.6875 -20.765625 C 15.601562 -20.347656 16.289062 -19.75 16.75 -18.96875 C 17.21875 -18.195312 17.453125 -17.273438 17.453125 -16.203125 C 17.453125 -15.273438 17.203125 -14.4375 16.703125 -13.6875 C 16.203125 -12.9375 15.484375 -12.347656 14.546875 -11.921875 L 14.546875 -11.625 C 15.972656 -11.269531 17.050781 -10.628906 17.78125 -9.703125 C 18.519531 -8.773438 18.890625 -7.609375 18.890625 -6.203125 C 18.890625 -4.210938 18.304688 -2.679688 17.140625 -1.609375 C 15.972656 -0.535156 14.242188 0 11.953125 0 Z M 11.21875 -12.40625 C 12.40625 -12.40625 13.320312 -12.710938 13.96875 -13.328125 C 14.625 -13.953125 14.953125 -14.804688 14.953125 -15.890625 C 14.953125 -17.035156 14.632812 -17.890625 14 -18.453125 C 13.375 -19.023438 12.445312 -19.3125 11.21875 -19.3125 L 5.75 -19.3125 L 5.75 -12.40625 Z M 11.765625 -2.078125 C 14.804688 -2.078125 16.328125 -3.453125 16.328125 -6.203125 C 16.328125 -8.953125 14.804688 -10.328125 11.765625 -10.328125 L 5.75 -10.328125 L 5.75 -2.078125 Z M 11.765625 -2.078125 "/></g></g></g><g fill="#000000" fill-opacity="1"><g transform="translate(182.384951, 99.489953)"><g><path d="M 6.65625 0.3125 C 5.0625 0.3125 3.816406 -0.101562 2.921875 -0.9375 C 2.035156 -1.769531 1.59375 -2.957031 1.59375 -4.5 C 1.59375 -5.445312 1.789062 -6.25 2.1875 -6.90625 C 2.582031 -7.570312 3.191406 -8.109375 4.015625 -8.515625 C 4.847656 -8.929688 5.929688 -9.253906 7.265625 -9.484375 C 8.441406 -9.679688 9.332031 -9.898438 9.9375 -10.140625 C 10.550781 -10.378906 10.960938 -10.648438 11.171875 -10.953125 C 11.378906 -11.253906 11.484375 -11.640625 11.484375 -12.109375 C 11.484375 -12.835938 11.234375 -13.394531 10.734375 -13.78125 C 10.234375 -14.175781 9.425781 -14.375 8.3125 -14.375 C 7.269531 -14.375 6.375 -14.171875 5.625 -13.765625 C 4.875 -13.359375 4.191406 -12.753906 3.578125 -11.953125 L 3.28125 -11.953125 L 2.109375 -13.609375 C 2.785156 -14.472656 3.648438 -15.160156 4.703125 -15.671875 C 5.765625 -16.191406 6.96875 -16.453125 8.3125 -16.453125 C 10.21875 -16.453125 11.617188 -16.035156 12.515625 -15.203125 C 13.421875 -14.367188 13.875 -13.210938 13.875 -11.734375 L 13.875 -3.171875 C 13.875 -2.273438 14.253906 -1.828125 15.015625 -1.828125 C 15.265625 -1.828125 15.507812 -1.867188 15.75 -1.953125 L 15.953125 -1.90625 L 16.234375 -0.25 C 16.054688 -0.132812 15.820312 -0.046875 15.53125 0.015625 C 15.238281 0.078125 14.941406 0.109375 14.640625 0.109375 C 13.753906 0.109375 13.082031 -0.0820312 12.625 -0.46875 C 12.175781 -0.851562 11.890625 -1.425781 11.765625 -2.1875 L 11.453125 -2.21875 C 10.992188 -1.375 10.375 -0.738281 9.59375 -0.3125 C 8.8125 0.101562 7.832031 0.3125 6.65625 0.3125 Z M 7.1875 -1.59375 C 8.082031 -1.59375 8.859375 -1.800781 9.515625 -2.21875 C 10.171875 -2.632812 10.675781 -3.21875 11.03125 -3.96875 C 11.382812 -4.71875 11.5625 -5.582031 11.5625 -6.5625 L 11.5625 -8.625 L 11.28125 -8.671875 C 10.914062 -8.421875 10.472656 -8.207031 9.953125 -8.03125 C 9.441406 -7.863281 8.722656 -7.710938 7.796875 -7.578125 C 6.859375 -7.453125 6.113281 -7.253906 5.5625 -6.984375 C 5.007812 -6.722656 4.613281 -6.390625 4.375 -5.984375 C 4.144531 -5.585938 4.03125 -5.09375 4.03125 -4.5 C 4.03125 -3.550781 4.304688 -2.828125 4.859375 -2.328125 C 5.421875 -1.835938 6.195312 -1.59375 7.1875 -1.59375 Z M 7.1875 -1.59375 "/></g></g></g><g fill="#000000" fill-opacity="1"><g transform="translate(199.080601, 99.489953)"><g><path d="M 4.015625 -19.25 C 3.503906 -19.25 3.085938 -19.40625 2.765625 -19.71875 C 2.453125 -20.039062 2.296875 -20.445312 2.296875 -20.9375 C 2.296875 -21.425781 2.453125 -21.828125 2.765625 -22.140625 C 3.085938 -22.460938 3.503906 -22.625 4.015625 -22.625 C 4.515625 -22.625 4.921875 -22.460938 5.234375 -22.140625 C 5.554688 -21.828125 5.71875 -21.425781 5.71875 -20.9375 C 5.71875 -20.445312 5.554688 -20.039062 5.234375 -19.71875 C 4.921875 -19.40625 4.515625 -19.25 4.015625 -19.25 Z M 2.8125 0 L 2.8125 -16.140625 L 5.1875 -16.140625 L 5.1875 0 Z M 2.8125 0 "/></g></g></g><g fill="#000000" fill-opacity="1"><g transform="translate(207.084564, 99.489953)"><g><path d="M 7.359375 0.3125 C 6.347656 0.3125 5.410156 0.175781 4.546875 -0.09375 C 3.679688 -0.363281 2.953125 -0.734375 2.359375 -1.203125 C 1.765625 -1.671875 1.34375 -2.195312 1.09375 -2.78125 L 2.5 -4.25 L 2.8125 -4.25 C 3.332031 -3.445312 3.960938 -2.84375 4.703125 -2.4375 C 5.453125 -2.03125 6.335938 -1.828125 7.359375 -1.828125 C 8.546875 -1.828125 9.445312 -2.054688 10.0625 -2.515625 C 10.6875 -2.984375 11 -3.632812 11 -4.46875 C 11 -5.101562 10.8125 -5.625 10.4375 -6.03125 C 10.0625 -6.445312 9.457031 -6.757812 8.625 -6.96875 L 5.890625 -7.640625 C 4.441406 -7.992188 3.382812 -8.550781 2.71875 -9.3125 C 2.050781 -10.070312 1.71875 -11.007812 1.71875 -12.125 C 1.71875 -13.007812 1.941406 -13.773438 2.390625 -14.421875 C 2.835938 -15.066406 3.484375 -15.566406 4.328125 -15.921875 C 5.171875 -16.273438 6.171875 -16.453125 7.328125 -16.453125 C 8.816406 -16.453125 9.984375 -16.242188 10.828125 -15.828125 C 11.679688 -15.410156 12.347656 -14.832031 12.828125 -14.09375 L 11.484375 -12.78125 L 11.1875 -12.78125 C 10.675781 -13.375 10.113281 -13.800781 9.5 -14.0625 C 8.894531 -14.320312 8.171875 -14.453125 7.328125 -14.453125 C 6.265625 -14.453125 5.445312 -14.257812 4.875 -13.875 C 4.3125 -13.5 4.03125 -12.953125 4.03125 -12.234375 C 4.03125 -11.578125 4.226562 -11.046875 4.625 -10.640625 C 5.03125 -10.242188 5.734375 -9.925781 6.734375 -9.6875 L 9.40625 -9.046875 C 10.8125 -8.710938 11.828125 -8.160156 12.453125 -7.390625 C 13.078125 -6.617188 13.390625 -5.65625 13.390625 -4.5 C 13.390625 -3.550781 13.164062 -2.710938 12.71875 -1.984375 C 12.269531 -1.265625 11.59375 -0.703125 10.6875 -0.296875 C 9.78125 0.109375 8.671875 0.3125 7.359375 0.3125 Z M 7.359375 0.3125 "/></g></g></g><g fill="#000000" fill-opacity="1"><g transform="translate(222.009675, 99.489953)"><g/></g></g><g fill="#000000" fill-opacity="1"><g transform="translate(229.355176, 99.489953)"><g><path d="M 5.5625 0 L 3.234375 0 L 3.234375 -21.390625 L 6.96875 -21.390625 L 13.453125 -3.28125 L 13.75 -3.28125 L 20.234375 -21.390625 L 23.84375 -21.390625 L 23.84375 0 L 21.453125 0 L 21.453125 -17.453125 L 21.09375 -17.515625 L 14.765625 0 L 12.265625 0 L 5.921875 -17.515625 L 5.5625 -17.453125 Z M 5.5625 0 "/></g></g></g><g fill="#000000" fill-opacity="1"><g transform="translate(256.439882, 99.489953)"><g><path d="M 15.375 -7.515625 L 4.28125 -7.515625 C 4.351562 -5.554688 4.828125 -4.117188 5.703125 -3.203125 C 6.578125 -2.285156 7.773438 -1.828125 9.296875 -1.828125 C 10.441406 -1.828125 11.363281 -2.03125 12.0625 -2.4375 C 12.769531 -2.851562 13.320312 -3.5 13.71875 -4.375 L 14.03125 -4.375 L 15.578125 -3.453125 C 15.109375 -2.285156 14.359375 -1.363281 13.328125 -0.6875 C 12.304688 -0.0195312 10.960938 0.3125 9.296875 0.3125 C 7.734375 0.3125 6.390625 0.00390625 5.265625 -0.609375 C 4.140625 -1.222656 3.273438 -2.15625 2.671875 -3.40625 C 2.066406 -4.65625 1.765625 -6.207031 1.765625 -8.0625 C 1.765625 -9.894531 2.082031 -11.441406 2.71875 -12.703125 C 3.363281 -13.960938 4.238281 -14.898438 5.34375 -15.515625 C 6.457031 -16.140625 7.722656 -16.453125 9.140625 -16.453125 C 11.210938 -16.453125 12.828125 -15.867188 13.984375 -14.703125 C 15.148438 -13.535156 15.738281 -11.804688 15.75 -9.515625 C 15.75 -8.617188 15.726562 -8.015625 15.6875 -7.703125 Z M 13.390625 -9.515625 C 13.347656 -11.234375 12.96875 -12.476562 12.25 -13.25 C 11.53125 -14.03125 10.492188 -14.421875 9.140625 -14.421875 C 7.734375 -14.421875 6.625 -14.03125 5.8125 -13.25 C 5.007812 -12.46875 4.519531 -11.222656 4.34375 -9.515625 Z M 13.390625 -9.515625 "/></g></g></g><g fill="#000000" fill-opacity="1"><g transform="translate(273.64767, 99.489953)"><g><path d="M 8.375 0.3125 C 7.070312 0.3125 5.925781 0.00390625 4.9375 -0.609375 C 3.945312 -1.234375 3.171875 -2.171875 2.609375 -3.421875 C 2.046875 -4.671875 1.765625 -6.21875 1.765625 -8.0625 C 1.765625 -9.90625 2.054688 -11.453125 2.640625 -12.703125 C 3.234375 -13.960938 4.039062 -14.898438 5.0625 -15.515625 C 6.09375 -16.140625 7.285156 -16.453125 8.640625 -16.453125 C 9.722656 -16.453125 10.691406 -16.25 11.546875 -15.84375 C 12.398438 -15.4375 13.132812 -14.769531 13.75 -13.84375 L 14.0625 -13.90625 L 14.0625 -22.625 L 16.453125 -22.625 L 16.453125 0 L 14.0625 0 L 14.0625 -2.359375 L 13.75 -2.421875 C 13.226562 -1.617188 12.515625 -0.960938 11.609375 -0.453125 C 10.710938 0.0546875 9.632812 0.3125 8.375 0.3125 Z M 9.109375 -1.828125 C 10.617188 -1.828125 11.820312 -2.34375 12.71875 -3.375 C 13.613281 -4.40625 14.0625 -5.96875 14.0625 -8.0625 C 14.0625 -10.164062 13.613281 -11.734375 12.71875 -12.765625 C 11.820312 -13.796875 10.617188 -14.3125 9.109375 -14.3125 C 7.566406 -14.3125 6.375 -13.804688 5.53125 -12.796875 C 4.6875 -11.796875 4.265625 -10.21875 4.265625 -8.0625 C 4.265625 -3.90625 5.878906 -1.828125 9.109375 -1.828125 Z M 9.109375 -1.828125 "/></g></g></g><g fill="#000000" fill-opacity="1"><g transform="translate(292.918636, 99.489953)"><g><path d="M 2.8125 0 L 2.8125 -16.140625 L 5.078125 -16.140625 L 5.078125 -13.609375 L 5.390625 -13.53125 C 6.140625 -15.363281 7.550781 -16.28125 9.625 -16.28125 C 10.726562 -16.28125 11.554688 -16.082031 12.109375 -15.6875 L 11.484375 -13.671875 L 11.1875 -13.609375 C 10.582031 -13.910156 9.921875 -14.0625 9.203125 -14.0625 C 7.910156 -14.0625 6.914062 -13.578125 6.21875 -12.609375 C 5.53125 -11.648438 5.1875 -10.085938 5.1875 -7.921875 L 5.1875 0 Z M 2.8125 0 "/></g></g></g><g fill="#000000" fill-opacity="1"><g transform="translate(305.078198, 99.489953)"><g><path d="M 6.65625 0.3125 C 5.0625 0.3125 3.816406 -0.101562 2.921875 -0.9375 C 2.035156 -1.769531 1.59375 -2.957031 1.59375 -4.5 C 1.59375 -5.445312 1.789062 -6.25 2.1875 -6.90625 C 2.582031 -7.570312 3.191406 -8.109375 4.015625 -8.515625 C 4.847656 -8.929688 5.929688 -9.253906 7.265625 -9.484375 C 8.441406 -9.679688 9.332031 -9.898438 9.9375 -10.140625 C 10.550781 -10.378906 10.960938 -10.648438 11.171875 -10.953125 C 11.378906 -11.253906 11.484375 -11.640625 11.484375 -12.109375 C 11.484375 -12.835938 11.234375 -13.394531 10.734375 -13.78125 C 10.234375 -14.175781 9.425781 -14.375 8.3125 -14.375 C 7.269531 -14.375 6.375 -14.171875 5.625 -13.765625 C 4.875 -13.359375 4.191406 -12.753906 3.578125 -11.953125 L 3.28125 -11.953125 L 2.109375 -13.609375 C 2.785156 -14.472656 3.648438 -15.160156 4.703125 -15.671875 C 5.765625 -16.191406 6.96875 -16.453125 8.3125 -16.453125 C 10.21875 -16.453125 11.617188 -16.035156 12.515625 -15.203125 C 13.421875 -14.367188 13.875 -13.210938 13.875 -11.734375 L 13.875 -3.171875 C 13.875 -2.273438 14.253906 -1.828125 15.015625 -1.828125 C 15.265625 -1.828125 15.507812 -1.867188 15.75 -1.953125 L 15.953125 -1.90625 L 16.234375 -0.25 C 16.054688 -0.132812 15.820312 -0.046875 15.53125 0.015625 C 15.238281 0.078125 14.941406 0.109375 14.640625 0.109375 C 13.753906 0.109375 13.082031 -0.0820312 12.625 -0.46875 C 12.175781 -0.851562 11.890625 -1.425781 11.765625 -2.1875 L 11.453125 -2.21875 C 10.992188 -1.375 10.375 -0.738281 9.59375 -0.3125 C 8.8125 0.101562 7.832031 0.3125 6.65625 0.3125 Z M 7.1875 -1.59375 C 8.082031 -1.59375 8.859375 -1.800781 9.515625 -2.21875 C 10.171875 -2.632812 10.675781 -3.21875 11.03125 -3.96875 C 11.382812 -4.71875 11.5625 -5.582031 11.5625 -6.5625 L 11.5625 -8.625 L 11.28125 -8.671875 C 10.914062 -8.421875 10.472656 -8.207031 9.953125 -8.03125 C 9.441406 -7.863281 8.722656 -7.710938 7.796875 -7.578125 C 6.859375 -7.453125 6.113281 -7.253906 5.5625 -6.984375 C 5.007812 -6.722656 4.613281 -6.390625 4.375 -5.984375 C 4.144531 -5.585938 4.03125 -5.09375 4.03125 -4.5 C 4.03125 -3.550781 4.304688 -2.828125 4.859375 -2.328125 C 5.421875 -1.835938 6.195312 -1.59375 7.1875 -1.59375 Z M 7.1875 -1.59375 "/></g></g></g><g fill="#000000" fill-opacity="1"><g transform="translate(321.773849, 99.489953)"><g><path d="M 7.359375 0.3125 C 6.347656 0.3125 5.410156 0.175781 4.546875 -0.09375 C 3.679688 -0.363281 2.953125 -0.734375 2.359375 -1.203125 C 1.765625 -1.671875 1.34375 -2.195312 1.09375 -2.78125 L 2.5 -4.25 L 2.8125 -4.25 C 3.332031 -3.445312 3.960938 -2.84375 4.703125 -2.4375 C 5.453125 -2.03125 6.335938 -1.828125 7.359375 -1.828125 C 8.546875 -1.828125 9.445312 -2.054688 10.0625 -2.515625 C 10.6875 -2.984375 11 -3.632812 11 -4.46875 C 11 -5.101562 10.8125 -5.625 10.4375 -6.03125 C 10.0625 -6.445312 9.457031 -6.757812 8.625 -6.96875 L 5.890625 -7.640625 C 4.441406 -7.992188 3.382812 -8.550781 2.71875 -9.3125 C 2.050781 -10.070312 1.71875 -11.007812 1.71875 -12.125 C 1.71875 -13.007812 1.941406 -13.773438 2.390625 -14.421875 C 2.835938 -15.066406 3.484375 -15.566406 4.328125 -15.921875 C 5.171875 -16.273438 6.171875 -16.453125 7.328125 -16.453125 C 8.816406 -16.453125 9.984375 -16.242188 10.828125 -15.828125 C 11.679688 -15.410156 12.347656 -14.832031 12.828125 -14.09375 L 11.484375 -12.78125 L 11.1875 -12.78125 C 10.675781 -13.375 10.113281 -13.800781 9.5 -14.0625 C 8.894531 -14.320312 8.171875 -14.453125 7.328125 -14.453125 C 6.265625 -14.453125 5.445312 -14.257812 4.875 -13.875 C 4.3125 -13.5 4.03125 -12.953125 4.03125 -12.234375 C 4.03125 -11.578125 4.226562 -11.046875 4.625 -10.640625 C 5.03125 -10.242188 5.734375 -9.925781 6.734375 -9.6875 L 9.40625 -9.046875 C 10.8125 -8.710938 11.828125 -8.160156 12.453125 -7.390625 C 13.078125 -6.617188 13.390625 -5.65625 13.390625 -4.5 C 13.390625 -3.550781 13.164062 -2.710938 12.71875 -1.984375 C 12.269531 -1.265625 11.59375 -0.703125 10.6875 -0.296875 C 9.78125 0.109375 8.671875 0.3125 7.359375 0.3125 Z M 7.359375 0.3125 "/></g></g></g><g fill="#000000" fill-opacity="1"><g transform="translate(336.698971, 99.489953)"><g><path d="M 2.8125 0 L 2.8125 -22.625 L 5.1875 -22.625 L 5.1875 -13.84375 L 5.5 -13.78125 C 6.65625 -15.5625 8.316406 -16.453125 10.484375 -16.453125 C 12.429688 -16.453125 13.835938 -15.957031 14.703125 -14.96875 C 15.578125 -13.976562 16.015625 -12.453125 16.015625 -10.390625 L 16.015625 0 L 13.640625 0 L 13.640625 -10.328125 C 13.640625 -11.304688 13.515625 -12.085938 13.265625 -12.671875 C 13.015625 -13.265625 12.628906 -13.695312 12.109375 -13.96875 C 11.585938 -14.238281 10.898438 -14.375 10.046875 -14.375 C 8.585938 -14.375 7.410156 -13.898438 6.515625 -12.953125 C 5.628906 -12.003906 5.1875 -10.445312 5.1875 -8.28125 L 5.1875 0 Z M 2.8125 0 "/></g></g></g></svg>